<mxfile host="app.diagrams.net" modified="2023-11-26T22:52:34.776Z" agent="Mozilla/5.0 (Windows NT 10.0; Win64; x64) AppleWebKit/537.36 (KHTML, like Gecko) Chrome/119.0.0.0 Safari/537.36 Edg/119.0.0.0" etag="C01uCBqXa5wRsGoxRVEV" version="22.1.4" type="device">
  <diagram id="C5RBs43oDa-KdzZeNtuy" name="Page-1">
    <mxGraphModel dx="1336" dy="759" grid="1" gridSize="10" guides="1" tooltips="1" connect="1" arrows="1" fold="1" page="1" pageScale="1" pageWidth="827" pageHeight="1169" math="0" shadow="0">
      <root>
        <mxCell id="WIyWlLk6GJQsqaUBKTNV-0" />
        <mxCell id="WIyWlLk6GJQsqaUBKTNV-1" parent="WIyWlLk6GJQsqaUBKTNV-0" />
        <mxCell id="WIyWlLk6GJQsqaUBKTNV-2" value="" style="rounded=0;html=1;jettySize=auto;orthogonalLoop=1;fontSize=11;endArrow=block;endFill=0;endSize=8;strokeWidth=1;shadow=0;labelBackgroundColor=none;edgeStyle=orthogonalEdgeStyle;" parent="WIyWlLk6GJQsqaUBKTNV-1" source="WIyWlLk6GJQsqaUBKTNV-3" target="WIyWlLk6GJQsqaUBKTNV-6" edge="1">
          <mxGeometry relative="1" as="geometry" />
        </mxCell>
        <mxCell id="WIyWlLk6GJQsqaUBKTNV-3" value="first_digit ← keypad_to_ascii()&amp;nbsp;" style="rounded=1;whiteSpace=wrap;html=1;fontSize=12;glass=0;strokeWidth=1;shadow=0;" parent="WIyWlLk6GJQsqaUBKTNV-1" vertex="1">
          <mxGeometry x="135" y="50" width="200" height="40" as="geometry" />
        </mxCell>
        <mxCell id="WIyWlLk6GJQsqaUBKTNV-5" value="NO" style="edgeStyle=orthogonalEdgeStyle;rounded=0;html=1;jettySize=auto;orthogonalLoop=1;fontSize=11;endArrow=block;endFill=0;endSize=8;strokeWidth=1;shadow=0;labelBackgroundColor=none;entryX=0.919;entryY=1.08;entryDx=0;entryDy=0;entryPerimeter=0;exitX=1;exitY=0.5;exitDx=0;exitDy=0;" parent="WIyWlLk6GJQsqaUBKTNV-1" edge="1">
          <mxGeometry x="-0.1606" y="-11" relative="1" as="geometry">
            <mxPoint as="offset" />
            <mxPoint x="290" y="181.8" as="sourcePoint" />
            <mxPoint x="318.79999999999995" y="90.00000000000004" as="targetPoint" />
            <Array as="points">
              <mxPoint x="290" y="180" />
              <mxPoint x="319" y="180" />
            </Array>
          </mxGeometry>
        </mxCell>
        <mxCell id="WIyWlLk6GJQsqaUBKTNV-6" value="first_digit != 0" style="rhombus;whiteSpace=wrap;html=1;shadow=0;fontFamily=Helvetica;fontSize=12;align=center;strokeWidth=1;spacing=6;spacingTop=-4;" parent="WIyWlLk6GJQsqaUBKTNV-1" vertex="1">
          <mxGeometry x="180" y="130" width="110" height="110" as="geometry" />
        </mxCell>
        <mxCell id="j1rm0xvFnW7jCDJwI7ij-11" value="" style="edgeStyle=orthogonalEdgeStyle;rounded=0;orthogonalLoop=1;jettySize=auto;html=1;" edge="1" parent="WIyWlLk6GJQsqaUBKTNV-1" source="WIyWlLk6GJQsqaUBKTNV-12" target="j1rm0xvFnW7jCDJwI7ij-4">
          <mxGeometry relative="1" as="geometry" />
        </mxCell>
        <mxCell id="WIyWlLk6GJQsqaUBKTNV-12" value="second_digit = keypad_to_ascii()" style="rounded=1;whiteSpace=wrap;html=1;fontSize=12;glass=0;strokeWidth=1;shadow=0;" parent="WIyWlLk6GJQsqaUBKTNV-1" vertex="1">
          <mxGeometry x="170" y="280" width="210" height="30" as="geometry" />
        </mxCell>
        <mxCell id="j1rm0xvFnW7jCDJwI7ij-18" style="edgeStyle=orthogonalEdgeStyle;rounded=0;orthogonalLoop=1;jettySize=auto;html=1;entryX=0.5;entryY=0;entryDx=0;entryDy=0;" edge="1" parent="WIyWlLk6GJQsqaUBKTNV-1" source="j1rm0xvFnW7jCDJwI7ij-4" target="j1rm0xvFnW7jCDJwI7ij-16">
          <mxGeometry relative="1" as="geometry" />
        </mxCell>
        <mxCell id="j1rm0xvFnW7jCDJwI7ij-4" value="second_digit != 0" style="rhombus;whiteSpace=wrap;html=1;shadow=0;fontFamily=Helvetica;fontSize=12;align=center;strokeWidth=1;spacing=6;spacingTop=-4;" vertex="1" parent="WIyWlLk6GJQsqaUBKTNV-1">
          <mxGeometry x="221.25" y="390" width="107.5" height="100" as="geometry" />
        </mxCell>
        <mxCell id="j1rm0xvFnW7jCDJwI7ij-9" style="edgeStyle=orthogonalEdgeStyle;rounded=0;orthogonalLoop=1;jettySize=auto;html=1;entryX=0.313;entryY=-0.021;entryDx=0;entryDy=0;entryPerimeter=0;" edge="1" parent="WIyWlLk6GJQsqaUBKTNV-1" source="WIyWlLk6GJQsqaUBKTNV-6" target="WIyWlLk6GJQsqaUBKTNV-12">
          <mxGeometry relative="1" as="geometry" />
        </mxCell>
        <mxCell id="j1rm0xvFnW7jCDJwI7ij-10" value="YES" style="text;html=1;align=center;verticalAlign=middle;resizable=0;points=[];autosize=1;strokeColor=none;fillColor=none;" vertex="1" parent="WIyWlLk6GJQsqaUBKTNV-1">
          <mxGeometry x="240" y="240" width="50" height="30" as="geometry" />
        </mxCell>
        <mxCell id="j1rm0xvFnW7jCDJwI7ij-12" style="edgeStyle=orthogonalEdgeStyle;rounded=0;orthogonalLoop=1;jettySize=auto;html=1;entryX=0.852;entryY=1.172;entryDx=0;entryDy=0;entryPerimeter=0;" edge="1" parent="WIyWlLk6GJQsqaUBKTNV-1" source="j1rm0xvFnW7jCDJwI7ij-4" target="WIyWlLk6GJQsqaUBKTNV-12">
          <mxGeometry relative="1" as="geometry">
            <Array as="points">
              <mxPoint x="349" y="425" />
            </Array>
          </mxGeometry>
        </mxCell>
        <mxCell id="j1rm0xvFnW7jCDJwI7ij-13" value="NO" style="text;html=1;align=center;verticalAlign=middle;resizable=0;points=[];autosize=1;strokeColor=none;fillColor=none;" vertex="1" parent="WIyWlLk6GJQsqaUBKTNV-1">
          <mxGeometry x="350" y="368" width="40" height="30" as="geometry" />
        </mxCell>
        <mxCell id="j1rm0xvFnW7jCDJwI7ij-24" style="edgeStyle=orthogonalEdgeStyle;rounded=0;orthogonalLoop=1;jettySize=auto;html=1;entryX=0.5;entryY=0;entryDx=0;entryDy=0;" edge="1" parent="WIyWlLk6GJQsqaUBKTNV-1" source="j1rm0xvFnW7jCDJwI7ij-16" target="j1rm0xvFnW7jCDJwI7ij-23">
          <mxGeometry relative="1" as="geometry" />
        </mxCell>
        <mxCell id="j1rm0xvFnW7jCDJwI7ij-26" style="edgeStyle=orthogonalEdgeStyle;rounded=0;orthogonalLoop=1;jettySize=auto;html=1;exitX=0.5;exitY=1;exitDx=0;exitDy=0;" edge="1" parent="WIyWlLk6GJQsqaUBKTNV-1" source="j1rm0xvFnW7jCDJwI7ij-16">
          <mxGeometry relative="1" as="geometry">
            <mxPoint x="480" y="820" as="targetPoint" />
          </mxGeometry>
        </mxCell>
        <mxCell id="j1rm0xvFnW7jCDJwI7ij-16" value="first_digit != &#39;1&#39; or second_digit != &#39;7&#39;" style="rhombus;whiteSpace=wrap;html=1;shadow=0;fontFamily=Helvetica;fontSize=12;align=center;strokeWidth=1;spacing=6;spacingTop=-4;" vertex="1" parent="WIyWlLk6GJQsqaUBKTNV-1">
          <mxGeometry x="210.63" y="600" width="128.75" height="130" as="geometry" />
        </mxCell>
        <mxCell id="j1rm0xvFnW7jCDJwI7ij-19" value="YES" style="text;html=1;align=center;verticalAlign=middle;resizable=0;points=[];autosize=1;strokeColor=none;fillColor=none;" vertex="1" parent="WIyWlLk6GJQsqaUBKTNV-1">
          <mxGeometry x="275" y="528" width="50" height="30" as="geometry" />
        </mxCell>
        <mxCell id="j1rm0xvFnW7jCDJwI7ij-35" style="edgeStyle=orthogonalEdgeStyle;rounded=0;orthogonalLoop=1;jettySize=auto;html=1;entryX=0;entryY=0.5;entryDx=0;entryDy=0;" edge="1" parent="WIyWlLk6GJQsqaUBKTNV-1" source="j1rm0xvFnW7jCDJwI7ij-23" target="WIyWlLk6GJQsqaUBKTNV-3">
          <mxGeometry relative="1" as="geometry">
            <Array as="points">
              <mxPoint x="20" y="845" />
              <mxPoint x="20" y="455" />
              <mxPoint x="115" y="455" />
              <mxPoint x="115" y="70" />
            </Array>
          </mxGeometry>
        </mxCell>
        <mxCell id="j1rm0xvFnW7jCDJwI7ij-23" value="PORTB = 0xFF&lt;br&gt;_delay_ms(5000)&lt;br&gt;PORTB = 0x00" style="rounded=1;whiteSpace=wrap;html=1;fontSize=12;glass=0;strokeWidth=1;shadow=0;" vertex="1" parent="WIyWlLk6GJQsqaUBKTNV-1">
          <mxGeometry x="40" y="820" width="200" height="50" as="geometry" />
        </mxCell>
        <mxCell id="j1rm0xvFnW7jCDJwI7ij-25" value="YES" style="text;html=1;align=center;verticalAlign=middle;resizable=0;points=[];autosize=1;strokeColor=none;fillColor=none;" vertex="1" parent="WIyWlLk6GJQsqaUBKTNV-1">
          <mxGeometry x="380" y="750" width="50" height="30" as="geometry" />
        </mxCell>
        <mxCell id="j1rm0xvFnW7jCDJwI7ij-29" style="edgeStyle=orthogonalEdgeStyle;rounded=0;orthogonalLoop=1;jettySize=auto;html=1;entryX=0.5;entryY=0;entryDx=0;entryDy=0;" edge="1" parent="WIyWlLk6GJQsqaUBKTNV-1" source="j1rm0xvFnW7jCDJwI7ij-27" target="j1rm0xvFnW7jCDJwI7ij-28">
          <mxGeometry relative="1" as="geometry" />
        </mxCell>
        <mxCell id="j1rm0xvFnW7jCDJwI7ij-27" value="counter = 0" style="rounded=1;whiteSpace=wrap;html=1;fontSize=12;glass=0;strokeWidth=1;shadow=0;" vertex="1" parent="WIyWlLk6GJQsqaUBKTNV-1">
          <mxGeometry x="350" y="820" width="210" height="40" as="geometry" />
        </mxCell>
        <mxCell id="j1rm0xvFnW7jCDJwI7ij-30" style="edgeStyle=orthogonalEdgeStyle;rounded=0;orthogonalLoop=1;jettySize=auto;html=1;" edge="1" parent="WIyWlLk6GJQsqaUBKTNV-1" source="j1rm0xvFnW7jCDJwI7ij-28">
          <mxGeometry relative="1" as="geometry">
            <mxPoint x="454.375" y="1100" as="targetPoint" />
          </mxGeometry>
        </mxCell>
        <mxCell id="j1rm0xvFnW7jCDJwI7ij-36" style="edgeStyle=orthogonalEdgeStyle;rounded=0;orthogonalLoop=1;jettySize=auto;html=1;entryX=1;entryY=0.5;entryDx=0;entryDy=0;" edge="1" parent="WIyWlLk6GJQsqaUBKTNV-1" source="j1rm0xvFnW7jCDJwI7ij-28" target="WIyWlLk6GJQsqaUBKTNV-3">
          <mxGeometry relative="1" as="geometry">
            <Array as="points">
              <mxPoint x="660" y="975" />
              <mxPoint x="660" y="70" />
            </Array>
          </mxGeometry>
        </mxCell>
        <mxCell id="j1rm0xvFnW7jCDJwI7ij-28" value="counter &amp;lt;= 20" style="rhombus;whiteSpace=wrap;html=1;shadow=0;fontFamily=Helvetica;fontSize=12;align=center;strokeWidth=1;spacing=6;spacingTop=-4;" vertex="1" parent="WIyWlLk6GJQsqaUBKTNV-1">
          <mxGeometry x="390" y="910" width="128.75" height="130" as="geometry" />
        </mxCell>
        <mxCell id="j1rm0xvFnW7jCDJwI7ij-32" style="edgeStyle=orthogonalEdgeStyle;rounded=0;orthogonalLoop=1;jettySize=auto;html=1;entryX=0;entryY=0.5;entryDx=0;entryDy=0;" edge="1" parent="WIyWlLk6GJQsqaUBKTNV-1" source="j1rm0xvFnW7jCDJwI7ij-31" target="j1rm0xvFnW7jCDJwI7ij-28">
          <mxGeometry relative="1" as="geometry">
            <Array as="points">
              <mxPoint x="329" y="1130" />
              <mxPoint x="329" y="975" />
            </Array>
          </mxGeometry>
        </mxCell>
        <mxCell id="j1rm0xvFnW7jCDJwI7ij-31" value="PORTB = 0xFF&lt;br&gt;_delay_ms(250)&lt;br&gt;PORTB = 0x00&lt;br&gt;_delay_ms(250)&lt;br&gt;counter+= 2" style="rounded=1;whiteSpace=wrap;html=1;fontSize=12;glass=0;strokeWidth=1;shadow=0;" vertex="1" parent="WIyWlLk6GJQsqaUBKTNV-1">
          <mxGeometry x="349.38" y="1100" width="210" height="80" as="geometry" />
        </mxCell>
        <mxCell id="j1rm0xvFnW7jCDJwI7ij-33" value="Yes" style="text;html=1;align=center;verticalAlign=middle;resizable=0;points=[];autosize=1;strokeColor=none;fillColor=none;" vertex="1" parent="WIyWlLk6GJQsqaUBKTNV-1">
          <mxGeometry x="414" y="1050" width="40" height="30" as="geometry" />
        </mxCell>
        <mxCell id="j1rm0xvFnW7jCDJwI7ij-34" value="NO" style="text;html=1;align=center;verticalAlign=middle;resizable=0;points=[];autosize=1;strokeColor=none;fillColor=none;" vertex="1" parent="WIyWlLk6GJQsqaUBKTNV-1">
          <mxGeometry x="150" y="748" width="40" height="30" as="geometry" />
        </mxCell>
        <mxCell id="j1rm0xvFnW7jCDJwI7ij-37" value="NO" style="text;html=1;align=center;verticalAlign=middle;resizable=0;points=[];autosize=1;strokeColor=none;fillColor=none;" vertex="1" parent="WIyWlLk6GJQsqaUBKTNV-1">
          <mxGeometry x="570" y="940" width="40" height="30" as="geometry" />
        </mxCell>
      </root>
    </mxGraphModel>
  </diagram>
</mxfile>
